G04 EAGLE Gerber RS-274X export*
G75*
%MOMM*%
%FSLAX34Y34*%
%LPD*%
%INBottom Copper*%
%IPPOS*%
%AMOC8*
5,1,8,0,0,1.08239X$1,22.5*%
G01*
%ADD10C,1.320800*%
%ADD11P,1.429621X8X112.500000*%
%ADD12C,2.540000*%
%ADD13P,2.749271X8X292.500000*%
%ADD14P,1.539592X8X202.500000*%
%ADD15P,1.732040X8X22.500000*%
%ADD16C,1.600200*%
%ADD17P,1.732040X8X112.500000*%
%ADD18C,2.095500*%
%ADD19C,1.930400*%
%ADD20C,2.247900*%
%ADD21C,2.200000*%
%ADD22C,1.524000*%
%ADD23C,1.320800*%
%ADD24C,1.700000*%
%ADD25C,1.676400*%
%ADD26C,0.254000*%
%ADD27C,2.667000*%


D10*
X190500Y406400D03*
D11*
X190500Y457200D03*
X114300Y457200D03*
X114300Y406400D03*
D12*
X177800Y635000D03*
D13*
X177800Y584200D03*
D14*
X508000Y673100D03*
X431800Y673100D03*
D15*
X690880Y584200D03*
D16*
X655320Y584200D03*
D17*
X762000Y495300D03*
D16*
X762000Y469900D03*
D18*
X304800Y624523D02*
X304800Y645478D01*
X304800Y556578D02*
X304800Y535623D01*
D19*
X355600Y469900D03*
X355600Y546100D03*
D20*
X596900Y623761D02*
X596900Y646240D01*
X596900Y493840D02*
X596900Y471361D01*
D21*
X114200Y558600D03*
X114500Y508300D03*
D22*
X673100Y652780D02*
X673100Y668020D01*
X698500Y668020D02*
X698500Y652780D01*
X723900Y652780D02*
X723900Y668020D01*
D23*
X654050Y489204D02*
X654050Y475996D01*
X692150Y475996D02*
X692150Y489204D01*
X521208Y431800D02*
X508000Y431800D01*
X508000Y457200D02*
X521208Y457200D01*
X431800Y457200D02*
X418592Y457200D01*
X418592Y431800D02*
X431800Y431800D01*
D24*
X419900Y631500D03*
X419900Y601500D03*
X419900Y571500D03*
X419900Y541500D03*
X419900Y511500D03*
X519900Y511500D03*
X519900Y541500D03*
X519900Y571500D03*
X519900Y601500D03*
X519900Y631500D03*
D25*
X604393Y431800D02*
X621157Y431800D01*
X621157Y406400D02*
X604393Y406400D01*
X604393Y381000D02*
X621157Y381000D01*
D26*
X192024Y406908D02*
X192024Y443484D01*
X201168Y452628D01*
X201168Y610362D01*
X178308Y633222D01*
X192024Y406908D02*
X190500Y406400D01*
X178308Y633222D02*
X177800Y635000D01*
X692658Y582930D02*
X692658Y564642D01*
X762000Y495300D01*
X692658Y582930D02*
X690880Y584200D01*
X521208Y498348D02*
X612648Y406908D01*
X521208Y498348D02*
X521208Y509778D01*
X612648Y406908D02*
X612775Y406400D01*
X521208Y509778D02*
X519900Y511500D01*
X508000Y457200D02*
X534924Y457200D01*
X612648Y379476D01*
X612775Y381000D01*
D27*
X787400Y431800D03*
X812800Y685800D03*
D26*
X697230Y658368D02*
X697230Y608076D01*
X614934Y525780D01*
X614934Y432054D01*
X697230Y658368D02*
X698500Y660400D01*
X614934Y432054D02*
X612775Y431800D01*
D27*
X114300Y368300D03*
X114300Y647700D03*
M02*
