M48
;GenerationSoftware,Autodesk,EAGLE,9.6.0*%
;CreationDate,2024-11-10T17:26:24Z*%
FMAT,2
ICI,OFF
METRIC,TZ,000.000
T9C0.800
T8C0.813
T7C0.914
T6C1.016
T5C1.100
T4C1.118
T3C1.397
T2C1.499
T1C1.778
%
G90
M71
T1
X78740Y43180
X81280Y68580
X11430Y36830
X11430Y64770
T2
X59690Y63500
X59690Y48260
T3
X30480Y54610
X30480Y63500
T4
X35560Y46990
X35560Y54610
T5
X11450Y50830
X11420Y55860
T6
X17780Y63500
X17780Y58420
X72390Y66040
X69850Y66040
X67310Y66040
T7
X43180Y67310
X50800Y67310
T8
X19050Y40640
X11430Y45720
X11430Y40640
X19050Y45720
X69088Y58420
X76200Y46990
X76200Y49530
X65532Y58420
X65405Y48260
X69215Y48260
X50800Y43180
X50800Y45720
X43180Y45720
X43180Y43180
X61277Y38100
X61277Y43180
X61277Y40640
T9
X41990Y63150
X41990Y60150
X41990Y54150
X41990Y51150
X51990Y51150
X51990Y54150
X41990Y57150
X51990Y60150
X51990Y63150
X51990Y57150
M30