G04 EAGLE Gerber RS-274X export*
G75*
%MOMM*%
%FSLAX34Y34*%
%LPD*%
%INSoldermask Top*%
%IPPOS*%
%AMOC8*
5,1,8,0,0,1.08239X$1,22.5*%
G01*
%ADD10C,1.524000*%
%ADD11P,1.649562X8X112.500000*%
%ADD12C,2.743200*%
%ADD13P,2.969212X8X292.500000*%
%ADD14R,1.703200X1.503200*%
%ADD15P,1.759533X8X202.500000*%
%ADD16P,1.951982X8X22.500000*%
%ADD17C,1.803400*%
%ADD18P,1.951982X8X112.500000*%
%ADD19C,2.298700*%
%ADD20C,2.133600*%
%ADD21C,2.451100*%
%ADD22C,2.403200*%
%ADD23R,0.803200X2.403200*%
%ADD24C,1.727200*%
%ADD25C,1.524000*%
%ADD26R,1.803200X2.203200*%
%ADD27C,1.903200*%
%ADD28C,1.879600*%
%ADD29C,2.870200*%


D10*
X190500Y406400D03*
D11*
X190500Y457200D03*
X114300Y457200D03*
X114300Y406400D03*
D12*
X177800Y635000D03*
D13*
X177800Y584200D03*
D14*
X228600Y460400D03*
X228600Y479400D03*
D15*
X508000Y673100D03*
X431800Y673100D03*
D14*
X584200Y396900D03*
X584200Y415900D03*
X596900Y555600D03*
X596900Y536600D03*
D16*
X690880Y584200D03*
D17*
X655320Y584200D03*
D18*
X762000Y495300D03*
D17*
X762000Y469900D03*
D19*
X304800Y624523D02*
X304800Y645478D01*
X304800Y556578D02*
X304800Y535623D01*
D20*
X355600Y469900D03*
X355600Y546100D03*
D21*
X596900Y623761D02*
X596900Y646240D01*
X596900Y493840D02*
X596900Y471361D01*
D22*
X114200Y558600D03*
X114500Y508300D03*
D23*
X273050Y443900D03*
X273050Y495900D03*
X260350Y443900D03*
X298450Y443900D03*
X260350Y495900D03*
X285750Y495900D03*
X298450Y495900D03*
D24*
X673100Y652780D02*
X673100Y668020D01*
X698500Y668020D02*
X698500Y652780D01*
X723900Y652780D02*
X723900Y668020D01*
D25*
X654050Y489204D02*
X654050Y475996D01*
X692150Y475996D02*
X692150Y489204D01*
X521208Y431800D02*
X508000Y431800D01*
X508000Y457200D02*
X521208Y457200D01*
X431800Y457200D02*
X418592Y457200D01*
X418592Y431800D02*
X431800Y431800D01*
D26*
X331500Y393700D03*
X303500Y393700D03*
X268000Y393700D03*
X240000Y393700D03*
D14*
X762000Y593700D03*
X762000Y574700D03*
X736600Y593700D03*
X736600Y574700D03*
X660400Y428600D03*
X660400Y409600D03*
X546100Y454000D03*
X546100Y435000D03*
X571500Y435000D03*
X571500Y454000D03*
X596900Y593700D03*
X596900Y574700D03*
D27*
X419900Y631500D03*
X419900Y601500D03*
X419900Y571500D03*
X419900Y541500D03*
X419900Y511500D03*
X519900Y511500D03*
X519900Y541500D03*
X519900Y571500D03*
X519900Y601500D03*
X519900Y631500D03*
D28*
X604393Y431800D02*
X621157Y431800D01*
X621157Y406400D02*
X604393Y406400D01*
X604393Y381000D02*
X621157Y381000D01*
D29*
X787400Y431800D03*
X812800Y685800D03*
X114300Y368300D03*
X114300Y647700D03*
M02*
